<svg width="371" height="371" viewBox="0 0 371 371" fill="none" xmlns="http://www.w3.org/2000/svg">
<path fill-rule="evenodd" clip-rule="evenodd" d="M116.074 357.673C133.792 364.9 152.528 369.323 171.608 370.782L181.477 354.831C194.935 333.079 222.329 328.142 242.543 343.702L258.967 356.349C275.91 349.119 291.675 339.391 305.736 327.488L300.718 306.172C294.849 281.28 310.725 258.41 336.027 255.126L359.175 252.118C365.581 235.395 369.515 217.828 370.853 199.97L350.621 187.451C328.869 173.992 323.932 146.598 339.492 126.385L354.008 107.543C346.46 91.3098 336.586 76.2629 324.698 62.8772L301.97 68.224C277.065 74.0842 254.202 58.2133 250.918 32.9112L248.093 11.1953C230.741 5.01862 212.561 1.47649 194.16 0.686923L183.253 18.3149C169.791 40.0732 142.397 45.0101 122.183 29.4503L107.322 18.0063C89.9833 26.1022 74.012 36.8503 59.9828 49.8637L64.018 66.9784C69.8718 91.8789 53.9946 114.738 28.7051 118.031L12.6009 120.116C5.62158 138.466 1.61835 157.814 0.742621 177.427L14.1089 185.695C35.8608 199.154 40.7977 226.548 25.2379 246.761L15.6479 259.214C23.3863 277.257 33.9574 293.948 46.9615 308.656L62.7616 304.933C87.6665 299.073 110.53 314.943 113.814 340.246L116.074 357.673ZM142.017 249.448C106.929 225.178 98.1604 177.062 122.43 141.975C146.7 106.887 194.816 98.1183 229.903 122.388C264.991 146.658 273.76 194.774 249.49 229.861C225.22 264.949 177.104 273.717 142.017 249.448Z" fill="url(#paint0_linear_363_3636)"/>
<defs>
<linearGradient id="paint0_linear_363_3636" x1="333.823" y1="288.77" x2="36.8277" y2="83.3395" gradientUnits="userSpaceOnUse">
<stop stop-color="#67D4D8"/>
<stop offset="1" stop-color="#AFE15E"/>
</linearGradient>
</defs>
</svg>
