<svg width="133" height="40" viewBox="0 0 133 40" fill="none" xmlns="http://www.w3.org/2000/svg">
<path d="M55.2856 6.83114C54.8324 6.58091 54.4765 6.23616 54.218 5.79965C53.9594 5.36037 53.8315 4.86826 53.8315 4.32055C53.8315 3.77283 53.9594 3.28073 54.218 2.84144C54.4765 2.40494 54.8324 2.06018 55.2912 1.80996C55.7471 1.55974 56.2587 1.43462 56.8231 1.43462C57.2624 1.43462 57.6655 1.50969 58.0325 1.65704C58.3967 1.8044 58.7081 2.02404 58.9667 2.31319L58.444 2.82198C58.0186 2.37714 57.4904 2.15193 56.8565 2.15193C56.4366 2.15193 56.0585 2.24646 55.7193 2.43274C55.3801 2.6218 55.116 2.88037 54.9242 3.21122C54.7323 3.54207 54.6378 3.91185 54.6378 4.32055C54.6378 4.72925 54.7323 5.09903 54.9242 5.42988C55.116 5.76073 55.3801 6.0193 55.7193 6.20836C56.0585 6.39741 56.4366 6.48916 56.8565 6.48916C57.4848 6.48916 58.0131 6.26396 58.444 5.81356L58.9667 6.32235C58.7081 6.6115 58.3967 6.83392 58.027 6.98405C57.66 7.13419 57.254 7.20925 56.8147 7.20925C56.2503 7.20925 55.7416 7.08414 55.2884 6.83392L55.2856 6.83114ZM64.3715 6.43912V7.13975L60.2762 7.13975V1.49857L64.2575 1.49857V2.1992L61.0825 2.1992V3.93131L63.9128 3.93131V4.61526L61.0825 4.61526V6.43634L64.3715 6.43634V6.43912ZM71.0692 7.14253L71.0609 3.03328L69.0229 6.45858H68.6532L66.6152 3.0583V7.14531H65.8423V1.50413L66.504 1.50413L68.8561 5.4688L71.1777 1.50413L71.8394 1.50413L71.8477 7.14531H71.0748L71.0692 7.14253ZM77.8976 6.43912V7.13975L73.8022 7.13975V1.49857L77.7836 1.49857V2.1992L74.6085 2.1992V3.93131L77.4388 3.93131V4.61526L74.6085 4.61526V6.43634L77.8976 6.43634V6.43912ZM79.3628 1.49857L80.1607 1.49857V5.8497L83.4971 1.49857L84.2394 1.49857V7.13975H83.4498V2.79418L80.1051 7.13975H79.3628V1.49857ZM80.7696 0.817401C80.5305 0.625562 80.4082 0.353095 80.4026 0L80.9753 0C80.9809 0.208521 81.0532 0.372557 81.1978 0.486548C81.3396 0.60332 81.537 0.658925 81.79 0.658925C82.043 0.658925 82.2265 0.60054 82.3738 0.486548C82.5212 0.369777 82.599 0.208521 82.6046 0L83.169 0C83.1634 0.350315 83.0411 0.620002 82.802 0.814621C82.5629 1.00924 82.2265 1.10377 81.79 1.10377C81.3535 1.10377 81.0087 1.00924 80.7696 0.817401ZM91.0511 1.49857V7.13975L90.2448 7.13975V4.62638L87.0058 4.62638V7.13975L86.1995 7.13975V1.49857L87.0058 1.49857V3.92575L90.2448 3.92575V1.49857L91.0511 1.49857ZM96.6756 5.73015L93.6784 5.73015L93.0584 7.13975L92.2271 7.13975L94.7822 1.49857L95.5801 1.49857L98.1435 7.13975H97.2983L96.6783 5.73015H96.6756ZM96.392 5.08512L95.1742 2.32153L93.9565 5.08512L96.3892 5.08512H96.392ZM103.187 1.49857V7.13975L102.397 7.13975V5.4966H100.843C100.746 5.4966 100.674 5.49661 100.626 5.48826L99.4975 7.13975L98.644 7.13975L99.8923 5.34925C99.4892 5.2158 99.1806 4.99059 98.9665 4.67642C98.7524 4.36225 98.644 3.97857 98.644 3.52817C98.644 2.88871 98.8497 2.39104 99.2612 2.03238C99.6727 1.67651 100.226 1.49579 100.927 1.49579L103.193 1.49579L103.187 1.49857ZM99.8228 4.48458C100.067 4.70701 100.429 4.81822 100.907 4.81822H102.397V2.1992L100.954 2.1992C100.471 2.1992 100.101 2.31319 99.8423 2.53839C99.5837 2.76359 99.4558 3.09167 99.4558 3.52261C99.4558 3.95355 99.5782 4.26216 99.8228 4.48458ZM61.3577 11.1711V16.8123L54.2903 16.8123V11.1711H55.0882V16.1117H57.4348V11.1711H58.2243V16.1117H60.5709V11.1711H61.3605H61.3577ZM65.2835 14.3295L64.1074 14.3295V16.8123H63.3178V11.1711H64.1074V13.6206L65.3002 13.6206L67.074 11.1711H67.9358L65.9201 13.9042L68.0332 16.8123H67.1157L65.2863 14.3295H65.2835ZM70.0461 16.5037C69.5901 16.2535 69.2315 15.9087 68.9701 15.4695C68.7088 15.0302 68.5781 14.5381 68.5781 13.9959C68.5781 13.4538 68.7088 12.9616 68.9701 12.5224C69.2315 12.0831 69.5901 11.7355 70.0461 11.4853C70.502 11.2351 71.0164 11.11 71.5863 11.11C72.1563 11.11 72.6623 11.2351 73.1183 11.4853C73.5742 11.7355 73.9329 12.0803 74.1915 12.5168C74.45 12.9561 74.5779 13.4482 74.5779 13.9959C74.5779 14.5436 74.45 15.0357 74.1915 15.475C73.9329 15.9115 73.577 16.2563 73.1183 16.5065C72.6623 16.7567 72.1507 16.8818 71.5863 16.8818C71.022 16.8818 70.5048 16.7567 70.0461 16.5065V16.5037ZM72.7012 15.8782C73.0321 15.6891 73.2934 15.4305 73.4825 15.0997C73.6743 14.7688 73.7689 14.399 73.7689 13.9903C73.7689 13.5816 73.6743 13.2119 73.4825 12.881C73.2907 12.5502 73.0321 12.2916 72.7012 12.1025C72.3704 11.9135 71.9978 11.8217 71.5863 11.8217C71.1749 11.8217 70.7968 11.9163 70.4631 12.1025C70.1267 12.2916 69.8654 12.5502 69.6735 12.881C69.4817 13.2119 69.3872 13.5816 69.3872 13.9903C69.3872 14.399 69.4817 14.7688 69.6735 15.0997C69.8654 15.4305 70.1267 15.6891 70.4631 15.8782C70.7995 16.0672 71.1749 16.159 71.5863 16.159C71.9978 16.159 72.3732 16.0644 72.7012 15.8782ZM80.5333 11.1711V16.8123H79.7437V11.8718H77.2442L77.1886 13.5233C77.1608 14.3017 77.0996 14.9329 76.9996 15.4166C76.8995 15.9004 76.7438 16.2646 76.5269 16.5093C76.3128 16.7539 76.0209 16.8763 75.6567 16.8763C75.4899 16.8763 75.3203 16.854 75.1479 16.8123L75.2035 16.095C75.2897 16.1173 75.3759 16.1284 75.4621 16.1284C75.6928 16.1284 75.8791 16.0366 76.0181 15.8504C76.1571 15.6641 76.2628 15.386 76.3323 15.0163C76.4018 14.6465 76.4491 14.1572 76.4685 13.5483L76.5575 11.1711L80.5305 11.1711H80.5333ZM86.1578 15.4027L83.1606 15.4027L82.5406 16.8123H81.7093L84.2644 11.1711H85.0624L87.6258 16.8123L86.7806 16.8123L86.1606 15.4027H86.1578ZM85.877 14.7577L84.6592 11.9941L83.4414 14.7577L85.8742 14.7577H85.877ZM58.216 21.3664C58.6358 21.7167 58.8444 22.1977 58.8444 22.8094C58.8444 23.421 58.6358 23.902 58.216 24.2523C57.7962 24.6027 57.2207 24.775 56.4922 24.775H55.0965V26.4849L54.2903 26.4849V20.8437L56.4895 20.8437C57.2207 20.8437 57.7962 21.0189 58.2132 21.3664H58.216ZM57.6349 23.7491C57.9046 23.5323 58.0381 23.2181 58.0381 22.8094C58.0381 22.4007 57.9046 22.0893 57.6349 21.8696C57.3652 21.6528 56.976 21.5444 56.4672 21.5444H55.0965V24.0744H56.4672C56.9788 24.0744 57.368 23.966 57.6349 23.7491ZM61.2465 26.1735C60.7905 25.9233 60.4319 25.5785 60.1705 25.1393C59.9092 24.7 59.7785 24.2079 59.7785 23.6657C59.7785 23.1236 59.9092 22.6314 60.1705 22.1922C60.4319 21.7529 60.7905 21.4053 61.2465 21.1551C61.7025 20.9049 62.2168 20.7798 62.7868 20.7798C63.3567 20.7798 63.8628 20.9049 64.3187 21.1551C64.7747 21.4053 65.1333 21.7501 65.3919 22.1866C65.6505 22.6259 65.7784 23.118 65.7784 23.6657C65.7784 24.2134 65.6505 24.7055 65.3919 25.1448C65.1333 25.5813 64.7775 25.9261 64.3187 26.1763C63.8628 26.4265 63.3512 26.5516 62.7868 26.5516C62.2224 26.5516 61.7053 26.4265 61.2465 26.1763V26.1735ZM63.9017 25.5507C64.2325 25.3617 64.4939 25.1031 64.6829 24.7723C64.8748 24.4414 64.9693 24.0716 64.9693 23.6629C64.9693 23.2542 64.8748 22.8844 64.6829 22.5536C64.4911 22.2227 64.2325 21.9642 63.9017 21.7751C63.5708 21.5861 63.1983 21.4943 62.7868 21.4943C62.3753 21.4943 61.9972 21.5888 61.6635 21.7751C61.3271 21.9642 61.0658 22.2227 60.874 22.5536C60.6821 22.8844 60.5876 23.2542 60.5876 23.6629C60.5876 24.0716 60.6821 24.4414 60.874 24.7723C61.0658 25.1031 61.3271 25.3617 61.6635 25.5507C62 25.7398 62.3753 25.8315 62.7868 25.8315C63.1983 25.8315 63.5736 25.737 63.9017 25.5507ZM67.2825 20.8437L71.5391 20.8437V21.5277L68.0804 21.5277V23.1402H69.8376C70.5104 23.1402 71.0192 23.2792 71.3695 23.5601C71.7198 23.8409 71.8922 24.2412 71.8922 24.7695C71.8922 25.3228 71.7031 25.7481 71.325 26.0428C70.9469 26.3376 70.4047 26.4849 69.7013 26.4849H67.2825V20.8437ZM69.668 25.8482C70.1295 25.8482 70.4826 25.7593 70.7245 25.5813C70.9664 25.4034 71.0859 25.1448 71.0859 24.8001C71.0859 24.1189 70.6133 23.7769 69.668 23.7769H68.0804V25.8482H69.668ZM74.375 26.1735C73.919 25.9233 73.5604 25.5785 73.299 25.1393C73.0377 24.7 72.907 24.2079 72.907 23.6657C72.907 23.1236 73.0377 22.6314 73.299 22.1922C73.5604 21.7529 73.919 21.4053 74.375 21.1551C74.8309 20.9049 75.3453 20.7798 75.9152 20.7798C76.4852 20.7798 76.9912 20.9049 77.4472 21.1551C77.9031 21.4053 78.2618 21.7501 78.5204 22.1866C78.7789 22.6259 78.9068 23.118 78.9068 23.6657C78.9068 24.2134 78.7789 24.7055 78.5204 25.1448C78.2618 25.5813 77.9059 25.9261 77.4472 26.1763C76.9912 26.4265 76.4796 26.5516 75.9152 26.5516C75.3508 26.5516 74.8337 26.4265 74.375 26.1763V26.1735ZM77.0301 25.5507C77.361 25.3617 77.6223 25.1031 77.8114 24.7723C78.0032 24.4414 78.0978 24.0716 78.0978 23.6629C78.0978 23.2542 78.0032 22.8844 77.8114 22.5536C77.6196 22.2227 77.361 21.9642 77.0301 21.7751C76.6993 21.5861 76.3267 21.4943 75.9152 21.4943C75.5038 21.4943 75.1256 21.5888 74.792 21.7751C74.4556 21.9642 74.1942 22.2227 74.0024 22.5536C73.8106 22.8844 73.7161 23.2542 73.7161 23.6629C73.7161 24.0716 73.8106 24.4414 74.0024 24.7723C74.1942 25.1031 74.4556 25.3617 74.792 25.5507C75.1284 25.7398 75.5038 25.8315 75.9152 25.8315C76.3267 25.8315 76.7021 25.737 77.0301 25.5507ZM84.206 21.5444H82.2709V26.4849H81.4814V21.5444H79.5546V20.8437H84.206V21.5444ZM86.3107 26.1735C85.8547 25.9233 85.4961 25.5785 85.2347 25.1393C84.9734 24.7 84.8427 24.2079 84.8427 23.6657C84.8427 23.1236 84.9734 22.6314 85.2347 22.1922C85.4961 21.7529 85.8547 21.4053 86.3107 21.1551C86.7667 20.9049 87.281 20.7798 87.851 20.7798C88.4209 20.7798 88.9269 20.9049 89.3829 21.1551C89.8389 21.4053 90.1975 21.7501 90.4561 22.1866C90.7146 22.6259 90.8425 23.118 90.8425 23.6657C90.8425 24.2134 90.7146 24.7055 90.4561 25.1448C90.1975 25.5813 89.8416 25.9261 89.3829 26.1763C88.9269 26.4265 88.4154 26.5516 87.851 26.5516C87.2866 26.5516 86.7694 26.4265 86.3107 26.1763V26.1735ZM88.9659 25.5507C89.2967 25.3617 89.5581 25.1031 89.7471 24.7723C89.9389 24.4414 90.0335 24.0716 90.0335 23.6629C90.0335 23.2542 89.9389 22.8844 89.7471 22.5536C89.5553 22.2227 89.2967 21.9642 88.9659 21.7751C88.635 21.5861 88.2624 21.4943 87.851 21.4943C87.4395 21.4943 87.0614 21.5888 86.7277 21.7751C86.3913 21.9642 86.13 22.2227 85.9381 22.5536C85.7463 22.8844 85.6518 23.2542 85.6518 23.6629C85.6518 24.0716 85.7463 24.4414 85.9381 24.7723C86.13 25.1031 86.3913 25.3617 86.7277 25.5507C87.0641 25.7398 87.4395 25.8315 87.851 25.8315C88.2624 25.8315 88.6378 25.737 88.9659 25.5507ZM96.1445 21.5444L94.2094 21.5444V26.4849H93.4199V21.5444H91.4931V20.8437L96.1445 20.8437V21.5444ZM101.421 25.7843V26.4849H97.3261V20.8437H101.307V21.5444H98.1324V23.2765H100.963V23.9604H98.1324V25.7815H101.421V25.7843ZM103.148 20.8437L104.624 22.9067L106.098 20.8437H107.04L105.13 23.5517L107.193 26.4849H106.242L104.622 24.2357L103.009 26.4849H102.083L104.138 23.5823L102.219 20.8409H103.145L103.148 20.8437ZM113.076 20.8437V26.4849H112.27V23.9715L109.031 23.9715V26.4849H108.225V20.8437H109.031V23.2709L112.27 23.2709V20.8437H113.076ZM115.034 20.8437H115.832V25.1949L119.168 20.8437H119.91V26.4849H119.121V22.1393L115.776 26.4849H115.034V20.8437ZM123.836 24.0021H122.66V26.4849H121.87V20.8437H122.66V23.2931H123.853L125.627 20.8437H126.488L124.473 23.5767L126.586 26.4849H125.668L123.839 24.0021H123.836ZM127.617 20.8437H128.415V25.1949L131.752 20.8437H132.494V26.4849H131.704V22.1393L128.36 26.4849H127.617V20.8437ZM50.7899 0.350315L50.2422 0.350315V38.985H50.7899V0.350315Z" fill="#7C7C7C"/>
<path d="M24.768 14.3164V19.2681H21.7347V25.4959L17.581 25.4959V19.2681H14.5449V14.3164L24.768 14.3164Z" fill="#7C7C7C"/>
<path d="M0.161261 27.9727L4.95167 27.9727L6.06935 31.0059L7.18701 27.9727H11.9774L8.94414 33.5638L12.1387 39.1549L7.34827 39.1549L6.06935 35.8019L4.79041 39.1549H0L3.19453 33.5638L0.161261 27.9727Z" fill="#7C7C7C"/>
<path d="M19.7386 27.7715C16.063 27.7715 13.5107 30.3266 13.5107 33.5989C13.5107 36.8713 16.0658 39.4292 19.7386 39.4292C23.4113 39.4292 25.9664 36.8741 25.9664 33.5989C25.9664 30.3238 23.4113 27.7715 19.7386 27.7715ZM19.5801 35.7314L17.3114 32.4173C17.2391 32.3145 17.3169 32.1727 17.4421 32.1727L22.0462 32.2199C22.1713 32.2199 22.2436 32.3645 22.1713 32.4674L19.8331 35.7342C19.7691 35.8232 19.6385 35.8204 19.5773 35.7342L19.5801 35.7314Z" fill="url(#paint0_linear_363_3641)"/>
<path d="M19.7386 12.0073C23.4141 12.0073 25.9664 9.45223 25.9664 6.17985C25.9664 2.90746 23.4113 0.349609 19.7386 0.349609C16.0658 0.349609 13.5107 2.90468 13.5107 6.17985C13.5107 9.45501 16.0658 12.0073 19.7386 12.0073ZM19.8943 4.04737L22.163 7.36146C22.2352 7.46433 22.1574 7.60613 22.0323 7.60613L17.4282 7.55886C17.303 7.55886 17.2308 7.41429 17.303 7.31142L19.6412 4.0446C19.7052 3.95563 19.8359 3.95841 19.897 4.0446L19.8943 4.04737Z" fill="url(#paint1_linear_363_3641)"/>
<path d="M6.24931 25.605C9.92483 25.605 12.4771 23.0499 12.4771 19.7747C12.4771 16.4996 9.92205 13.9473 6.24931 13.9473C2.57656 13.9473 0.0214844 16.5023 0.0214844 19.7747C0.0214844 23.0471 2.57656 25.605 6.24931 25.605ZM7.44482 17.6617L7.49208 22.1519C7.49208 22.277 7.35307 22.352 7.24742 22.2825L4.01674 20.0722C3.92777 20.011 3.92499 19.8804 4.01674 19.8164L7.20016 17.5366C7.30303 17.4643 7.44482 17.5366 7.44761 17.6617H7.44482Z" fill="url(#paint2_linear_363_3641)"/>
<path d="M39.4654 19.847C39.4654 16.5746 36.9103 14.0195 33.2376 14.0195C29.5621 14.0195 27.0098 16.5746 27.0098 19.847C27.0098 23.1194 29.5648 25.6772 33.2376 25.6772C36.9131 25.6772 39.4654 23.1222 39.4654 19.847ZM32.2895 17.6116L35.4729 19.8915C35.5619 19.9554 35.5591 20.0861 35.4729 20.1473L32.2422 22.3576C32.1394 22.4299 31.9976 22.352 31.9976 22.2269L32.0449 17.7368C32.0449 17.6116 32.1894 17.5394 32.2923 17.6116H32.2895Z" fill="url(#paint3_linear_363_3641)"/>
<path d="M6.52674 0.505859C3.97166 0.505859 1.73633 0.664335 1.73633 0.664335L1.73633 4.09241L7.15508 4.09241V4.86255L1.73633 4.86255L1.73633 11.8466L5.89006 11.8466V8.25171C5.89006 8.25171 6.68799 8.33233 7.32746 8.33233C10.0438 8.33233 11.6397 6.73368 11.6397 4.42049C11.6397 2.1073 10.0438 0.508639 6.52952 0.508639L6.52674 0.505859Z" fill="#7C7C7C"/>
<path d="M34.5329 4.65962C33.5737 4.65962 32.7758 4.74024 32.7758 4.74024V3.7032L37.4077 3.7032V0.669922L28.6221 0.669922V11.8494C28.6221 11.8494 31.0187 12.0079 33.7322 12.0079C37.2465 12.0079 38.8424 10.4092 38.8424 8.33514C38.8424 6.26106 37.2437 4.6624 34.5302 4.6624L34.5329 4.65962ZM35.431 8.63263L32.723 8.63263V7.86249L35.431 7.86249V8.63263Z" fill="#7C7C7C"/>
<path d="M38.7869 35.0735V27.9727L30.2376 27.9727C30.2376 33.7695 29.2228 35.0735 29.2228 35.0735H28.3525V40.0001H32.1198V38.1151H36.1762V40.0001L39.9435 40.0001V35.0735H38.7841H38.7869ZM34.6554 35.1986H34.6193L33.9214 35.2014L33.8853 35.1986V31.5119H33.9214L34.6193 31.5092L34.6554 31.5119V35.1986Z" fill="#7C7C7C"/>
<defs>
<linearGradient id="paint0_linear_363_3641" x1="19.7386" y1="39.432" x2="19.7386" y2="27.7715" gradientUnits="userSpaceOnUse">
<stop stop-color="#F2B33F"/>
<stop offset="1" stop-color="#F6E14F"/>
</linearGradient>
<linearGradient id="paint1_linear_363_3641" x1="19.7386" y1="0.346829" x2="19.7386" y2="12.0073" gradientUnits="userSpaceOnUse">
<stop stop-color="#3686FB"/>
<stop offset="1" stop-color="#59BFF9"/>
</linearGradient>
<linearGradient id="paint2_linear_363_3641" x1="0.0187041" y1="19.7747" x2="12.4771" y2="19.7747" gradientUnits="userSpaceOnUse">
<stop stop-color="#67D4D8"/>
<stop offset="1" stop-color="#AFE15E"/>
</linearGradient>
<linearGradient id="paint3_linear_363_3641" x1="39.4654" y1="19.8498" x2="27.0098" y2="19.8498" gradientUnits="userSpaceOnUse">
<stop stop-color="#DF37BF"/>
<stop offset="1" stop-color="#ED7A48"/>
</linearGradient>
</defs>
</svg>
