<svg width="12" height="14" viewBox="0 0 12 14" fill="none" xmlns="http://www.w3.org/2000/svg">
<path d="M10.2398 2.09135C11.3413 3.19278 11.9713 4.67943 11.9966 6.23696C12.0218 7.7945 11.4404 9.3008 10.3751 10.4374L10.2398 10.5774L7.41111 13.4054C7.05219 13.764 6.57036 13.9729 6.06321 13.9896C5.55606 14.0063 5.06152 13.8296 4.67977 13.4954L4.58377 13.4054L1.75444 10.5767C0.629215 9.45146 -0.00292969 7.92533 -0.00292969 6.33402C-0.00292969 4.74271 0.629215 3.21658 1.75444 2.09135C2.87967 0.966129 4.4058 0.333984 5.99711 0.333984C7.58842 0.333984 9.11455 0.966129 10.2398 2.09135ZM5.99711 4.33402C5.73446 4.33402 5.47439 4.38575 5.23174 4.48626C4.98909 4.58677 4.76861 4.73409 4.58289 4.91981C4.39718 5.10552 4.24986 5.326 4.14935 5.56865C4.04884 5.81131 3.99711 6.07138 3.99711 6.33402C3.99711 6.59666 4.04884 6.85674 4.14935 7.09939C4.24986 7.34204 4.39718 7.56252 4.58289 7.74823C4.76861 7.93395 4.98909 8.08127 5.23174 8.18178C5.47439 8.28229 5.73446 8.33402 5.99711 8.33402C6.52754 8.33402 7.03625 8.12331 7.41132 7.74823C7.78639 7.37316 7.99711 6.86445 7.99711 6.33402C7.99711 5.80359 7.78639 5.29488 7.41132 4.91981C7.03625 4.54473 6.52754 4.33402 5.99711 4.33402Z" fill="url(#paint0_linear_363_3856)"/>
<defs>
<linearGradient id="paint0_linear_363_3856" x1="-0.00292969" y1="7.16331" x2="11.9974" y2="7.16331" gradientUnits="userSpaceOnUse">
<stop stop-color="#67D4D8"/>
<stop offset="1" stop-color="#AFE15E"/>
</linearGradient>
</defs>
</svg>
