<svg width="14" height="14" viewBox="0 0 14 14" fill="none" xmlns="http://www.w3.org/2000/svg">
<path d="M6.99967 0.333984C10.6817 0.333984 13.6663 3.31865 13.6663 7.00065C13.6663 10.6827 10.6817 13.6673 6.99967 13.6673C3.31767 13.6673 0.333008 10.6827 0.333008 7.00065C0.333008 3.31865 3.31767 0.333984 6.99967 0.333984ZM6.99967 3.00065C6.82286 3.00065 6.65329 3.07089 6.52827 3.19591C6.40325 3.32094 6.33301 3.49051 6.33301 3.66732V7.00065C6.33305 7.17745 6.40331 7.34699 6.52834 7.47198L8.52834 9.47198C8.65408 9.59342 8.82248 9.66062 8.99727 9.6591C9.17207 9.65758 9.33928 9.58747 9.46289 9.46386C9.58649 9.34026 9.6566 9.17305 9.65812 8.99825C9.65964 8.82345 9.59245 8.65505 9.47101 8.52932L7.66634 6.72465V3.66732C7.66634 3.49051 7.5961 3.32094 7.47108 3.19591C7.34605 3.07089 7.17649 3.00065 6.99967 3.00065Z" fill="url(#paint0_linear_363_3866)"/>
<defs>
<linearGradient id="paint0_linear_363_3866" x1="0.333008" y1="7.0016" x2="13.6663" y2="7.0016" gradientUnits="userSpaceOnUse">
<stop stop-color="#67D4D8"/>
<stop offset="1" stop-color="#AFE15E"/>
</linearGradient>
</defs>
</svg>
