<svg width="16" height="16" viewBox="0 0 16 16" fill="none" xmlns="http://www.w3.org/2000/svg">
<path d="M5.18097 1.62652L5.89897 1.39719C6.57097 1.18252 7.28964 1.52986 7.57764 2.20852L8.15097 3.56052C8.40097 4.14919 8.2623 4.84186 7.8083 5.27252L6.5463 6.47119C6.6243 7.18852 6.86497 7.89453 7.26897 8.58919C7.65286 9.26131 8.16768 9.84958 8.78297 10.3192L10.3003 9.81252C10.875 9.62119 11.501 9.84186 11.8536 10.3599L12.675 11.5665C13.0856 12.1692 13.0116 12.9999 12.503 13.5105L11.9576 14.0579C11.415 14.6025 10.6403 14.8005 9.92297 14.5765C8.2303 14.0485 6.6743 12.4812 5.2543 9.87453C3.8323 7.26386 3.33097 5.04786 3.74897 3.22919C3.92497 2.46386 4.4703 1.85386 5.1823 1.62652" fill="url(#paint0_linear_363_3861)"/>
<defs>
<linearGradient id="paint0_linear_363_3861" x1="3.60645" y1="8.00152" x2="12.9399" y2="8.00152" gradientUnits="userSpaceOnUse">
<stop stop-color="#67D4D8"/>
<stop offset="1" stop-color="#AFE15E"/>
</linearGradient>
</defs>
</svg>
