<svg width="37" height="37" viewBox="0 0 37 37" fill="none" xmlns="http://www.w3.org/2000/svg">
<path d="M14.2633 5.13447C14.2633 4.34456 14.4975 3.57239 14.9363 2.91561C15.3752 2.25883 15.9989 1.74692 16.7287 1.44464C17.4585 1.14236 18.2615 1.06326 19.0363 1.21737C19.811 1.37147 20.5226 1.75185 21.0812 2.3104C21.6397 2.86895 22.0201 3.58058 22.1742 4.35531C22.3283 5.13004 22.2492 5.93307 21.9469 6.66285C21.6446 7.39263 21.1327 8.01638 20.476 8.45523C19.8192 8.89408 19.047 9.12832 18.2571 9.12832C17.1979 9.12832 16.182 8.70754 15.433 7.95855C14.684 7.20955 14.2633 6.1937 14.2633 5.13447ZM30.7265 20.08L24.2721 12.7627C23.8973 12.3377 23.4364 11.9974 22.92 11.7642C22.4035 11.5311 21.8434 11.4105 21.2767 11.4105H15.2375C14.6708 11.4105 14.1107 11.5311 13.5942 11.7642C13.0778 11.9974 12.6169 12.3377 12.2421 12.7627L5.78775 20.08C5.36865 20.5088 5.13514 21.0854 5.13772 21.685C5.14029 22.2846 5.37874 22.8591 5.80151 23.2843C6.22428 23.7095 6.7974 23.9512 7.39698 23.9572C7.99656 23.9633 8.57443 23.7331 9.00565 23.3164L12.6942 20.3539L9.88429 31.0346C9.63982 31.5834 9.62163 32.2064 9.83366 32.7686C10.0457 33.3307 10.4708 33.7866 11.0168 34.0373C11.5629 34.2879 12.1857 34.3132 12.7502 34.1075C13.3147 33.9019 13.7754 33.4819 14.0322 32.9388L18.2571 25.6742L22.4763 32.9487C22.7331 33.4919 23.1938 33.9118 23.7583 34.1175C24.3228 34.3232 24.9456 34.2979 25.4917 34.0473C26.0377 33.7966 26.4628 33.3407 26.6748 32.7786C26.8869 32.2164 26.8687 31.5934 26.6242 31.0445L23.82 20.3539L27.5143 23.3164C27.9455 23.7331 28.5233 23.9633 29.1229 23.9572C29.7225 23.9512 30.2956 23.7095 30.7184 23.2843C31.1412 22.8591 31.3796 22.2846 31.3822 21.685C31.3848 21.0854 31.1513 20.5088 30.7322 20.08H30.7265Z" fill="white"/>
</svg>
