<svg width="37" height="37" viewBox="0 0 37 37" fill="none" xmlns="http://www.w3.org/2000/svg">
<g clip-path="url(#clip0_509_456)">
<path d="M15.3359 0C15.1422 0 14.9565 0.0769424 14.8195 0.213901C14.6826 0.350859 14.6056 0.536615 14.6056 0.730303V2.19091C14.6056 2.3846 14.6826 2.57035 14.8195 2.70731C14.9565 2.84427 15.1422 2.92121 15.3359 2.92121H16.4314V4.85469C8.53096 5.76392 2.37305 12.4915 2.37305 20.6311C2.37305 29.3885 9.49971 36.5151 18.2571 36.5151C27.0146 36.5151 34.1412 29.3885 34.1412 20.6311C34.1438 17.6336 33.2926 14.6975 31.6874 12.1661L33.2349 10.9133L33.9243 11.7648C33.9846 11.8394 34.0591 11.9013 34.1433 11.9472C34.2276 11.993 34.3201 12.0217 34.4155 12.0318C34.5108 12.0419 34.6073 12.0331 34.6992 12.0058C34.7912 11.9786 34.8769 11.9336 34.9515 11.8733L36.0871 10.9538C36.2375 10.8318 36.3332 10.6552 36.3533 10.4626C36.3735 10.2701 36.3163 10.0774 36.1945 9.92701L32.5181 5.38598C32.4578 5.31141 32.3834 5.24945 32.2991 5.20364C32.2149 5.15784 32.1224 5.12907 32.027 5.119C31.9316 5.10893 31.8352 5.11775 31.7432 5.14495C31.6512 5.17215 31.5655 5.2172 31.491 5.27753L30.3553 6.19699C30.205 6.31896 30.1093 6.49563 30.0891 6.68817C30.069 6.88071 30.1261 7.07336 30.248 7.22379L30.9378 8.07533L29.3968 9.32195C26.9368 6.89808 23.6917 5.27096 20.0829 4.85542V2.92121H21.1784C21.372 2.92121 21.5578 2.84427 21.6948 2.70731C21.8317 2.57035 21.9087 2.3846 21.9087 2.19091V0.730303C21.9087 0.536615 21.8317 0.350859 21.6948 0.213901C21.5578 0.0769424 21.372 0 21.1784 0L15.3359 0ZM18.2571 7.30303C25.6332 7.30303 31.5852 13.255 31.5852 20.6311C31.5852 28.0071 25.6332 33.9591 18.2571 33.9591C10.8811 33.9591 4.92911 28.0071 4.92911 20.6311C4.92911 13.255 10.8811 7.30303 18.2571 7.30303ZM18.2579 10.0209L18.2571 20.6311L26.7411 27.0019C27.9245 25.4259 28.6456 23.5514 28.8234 21.5886C29.0013 19.6258 28.629 17.6523 27.7482 15.8892C26.8674 14.1262 25.5129 12.6434 23.8367 11.6069C22.1604 10.5705 20.2287 10.021 18.2579 10.0209Z" fill="#7D7C7C"/>
</g>
<defs>
<clipPath id="clip0_509_456">
<rect width="36.5151" height="36.5151" fill="white"/>
</clipPath>
</defs>
</svg>
