<svg width="37" height="37" viewBox="0 0 37 37" fill="none" xmlns="http://www.w3.org/2000/svg">
<path d="M28.9079 6.0859H27.3864V3.04297H24.3435V6.0859H12.1718V3.04297H9.12885V6.0859H7.60738C5.91856 6.0859 4.57967 7.45522 4.57967 9.12883L4.56445 30.4293C4.56445 31.2364 4.88505 32.0103 5.45571 32.581C6.02637 33.1517 6.80035 33.4723 7.60738 33.4723H28.9079C30.5815 33.4723 31.9508 32.1029 31.9508 30.4293V9.12883C31.9508 7.45522 30.5815 6.0859 28.9079 6.0859ZM28.9079 30.4293H7.60738V15.2147H28.9079V30.4293ZM13.6932 21.3005H10.6503V18.2576H13.6932V21.3005ZM19.7791 21.3005H16.7362V18.2576H19.7791V21.3005ZM25.865 21.3005H22.822V18.2576H25.865V21.3005ZM13.6932 27.3864H10.6503V24.3435H13.6932V27.3864ZM19.7791 27.3864H16.7362V24.3435H19.7791V27.3864ZM25.865 27.3864H22.822V24.3435H25.865V27.3864Z" fill="white"/>
</svg>
