<svg width="37" height="37" viewBox="0 0 37 37" fill="none" xmlns="http://www.w3.org/2000/svg">
<g clip-path="url(#clip0_363_3910)">
<path d="M12.1713 16.371H11.2889C10.0847 16.3274 8.88432 16.5319 7.76239 16.9716C6.64045 17.4113 5.62086 18.0769 4.76687 18.927L4.52344 19.211V27.6095H8.66182V22.8423L9.21969 22.2134L9.47327 21.9192C10.7938 20.5626 12.4379 19.5643 14.2507 19.0183C13.3431 18.3277 12.6272 17.4164 12.1713 16.371Z" fill="white"/>
<path d="M31.7881 18.8958C30.9341 18.0456 29.9145 17.38 28.7925 16.9403C27.6706 16.5006 26.4703 16.2962 25.2661 16.3397C24.8967 16.3408 24.5277 16.3611 24.1605 16.4006C23.696 17.3813 22.9997 18.2342 22.1318 18.8856C24.0671 19.421 25.8203 20.4729 27.2034 21.9286L27.457 22.2126L28.0047 22.8414V27.6188H32.0011V19.1798L31.7881 18.8958Z" fill="white"/>
<path d="M11.259 14.3932H11.5735C11.4274 13.1387 11.6475 11.8688 12.2072 10.7367C12.767 9.60459 13.6424 8.6587 14.728 8.01319C14.3345 7.41206 13.7916 6.92342 13.1525 6.59513C12.5135 6.26684 11.8001 6.11015 11.0823 6.1404C10.3644 6.17065 9.66676 6.3868 9.05758 6.7677C8.44839 7.14859 7.94856 7.68117 7.60705 8.31327C7.26553 8.94538 7.09403 9.65534 7.10934 10.3736C7.12465 11.0919 7.32624 11.794 7.69438 12.4109C8.06252 13.0279 8.58458 13.5387 9.20945 13.8933C9.83431 14.2479 10.5406 14.4341 11.259 14.4338V14.3932Z" fill="white"/>
<path d="M24.7797 13.6324C24.792 13.8655 24.792 14.0991 24.7797 14.3323C24.9743 14.3631 25.1709 14.3801 25.368 14.383H25.5607C26.276 14.3448 26.9693 14.1221 27.573 13.7365C28.1766 13.3509 28.6702 12.8156 29.0056 12.1826C29.3409 11.5497 29.5067 10.8407 29.4867 10.1246C29.4668 9.40858 29.2617 8.70991 28.8916 8.09663C28.5214 7.48336 27.9988 6.97638 27.3745 6.62505C26.7503 6.27371 26.0457 6.09001 25.3294 6.09181C24.6131 6.09361 23.9094 6.28086 23.287 6.63533C22.6645 6.9898 22.1444 7.4994 21.7773 8.11453C22.6954 8.71392 23.4503 9.53183 23.9743 10.4949C24.4983 11.4579 24.775 12.536 24.7797 13.6324Z" fill="white"/>
<path d="M18.1258 18.1754C20.6298 18.1754 22.6597 16.1454 22.6597 13.6414C22.6597 11.1373 20.6298 9.10742 18.1258 9.10742C15.6217 9.10742 13.5918 11.1373 13.5918 13.6414C13.5918 16.1454 15.6217 18.1754 18.1258 18.1754Z" fill="white"/>
<path d="M18.3696 20.5911C17.045 20.5376 15.7232 20.7527 14.4838 21.2233C13.2445 21.694 12.1131 22.4105 11.1579 23.3298L10.9043 23.6138V30.0343C10.9083 30.2435 10.9534 30.4498 11.0371 30.6415C11.1208 30.8332 11.2414 31.0065 11.3922 31.1516C11.5429 31.2966 11.7207 31.4106 11.9154 31.4869C12.1102 31.5632 12.3181 31.6004 12.5272 31.5964H24.1816C24.3907 31.6004 24.5986 31.5632 24.7934 31.4869C24.9881 31.4106 25.1659 31.2966 25.3167 31.1516C25.4674 31.0065 25.588 30.8332 25.6717 30.6415C25.7554 30.4498 25.8005 30.2435 25.8045 30.0343V23.6341L25.5611 23.3298C24.612 22.4077 23.4846 21.6891 22.248 21.2182C21.0114 20.7473 19.6916 20.5339 18.3696 20.5911Z" fill="white"/>
</g>
<defs>
<clipPath id="clip0_363_3910">
<rect width="36.5151" height="36.5151" fill="white"/>
</clipPath>
</defs>
</svg>
