<svg width="20" height="20" viewBox="0 0 20 20" fill="none" xmlns="http://www.w3.org/2000/svg">
<path d="M19.5 10C19.5 15.2467 15.2467 19.5 10 19.5C4.75329 19.5 0.5 15.2467 0.5 10C0.5 4.75329 4.75329 0.5 10 0.5C15.2467 0.5 19.5 4.75329 19.5 10Z" stroke="#7D7C7C"/>
<path d="M12.1433 6.84961H5.375V14.1523H7.25881V11.7765H10.8686L12.5156 14.1523H14.6249L12.8088 11.7655C13.3729 11.678 13.7789 11.4699 14.0271 11.1415C14.2753 10.813 14.3994 10.2875 14.3994 9.5868V9.03936C14.3994 8.6233 14.3543 8.29486 14.2753 8.04305C14.1963 7.79123 14.0609 7.57223 13.8692 7.37517C13.6661 7.18905 13.4406 7.05767 13.1698 6.97011C12.8991 6.89348 12.5606 6.84961 12.1433 6.84961ZM11.8387 10.1671H7.25881V8.45905H11.8387C12.0981 8.45905 12.2786 8.5028 12.3689 8.57948C12.4591 8.65611 12.5156 8.79842 12.5156 9.00648V9.61961C12.5156 9.83855 12.4591 9.98086 12.3689 10.0575C12.2786 10.1341 12.0982 10.167 11.8387 10.167V10.1671Z" stroke="#7D7C7C" stroke-linecap="round" stroke-linejoin="round"/>
<path d="M14.2452 6.72266C14.5902 6.72266 14.8701 6.44284 14.8701 6.09766C14.8701 5.75247 14.5902 5.47266 14.2452 5.47266C13.9 5.47266 13.6201 5.75247 13.6201 6.09766C13.6201 6.44284 13.9 6.72266 14.2452 6.72266Z" fill="#7D7C7C"/>
</svg>
