<svg width="24" height="24" viewBox="0 0 24 24" fill="none" xmlns="http://www.w3.org/2000/svg">
<path d="M21.5 12C21.5 17.2467 17.2467 21.5 12 21.5C6.75329 21.5 2.5 17.2467 2.5 12C2.5 6.75329 6.75329 2.5 12 2.5C17.2467 2.5 21.5 6.75329 21.5 12Z" stroke="#7D7C7C"/>
<mask id="path-2-outside-1_553_464" maskUnits="userSpaceOnUse" x="4.77734" y="7.01172" width="13" height="11" fill="black">
<rect fill="white" x="4.77734" y="7.01172" width="13" height="11"/>
<path fill-rule="evenodd" clip-rule="evenodd" d="M6.52082 11.8918C9.43506 10.6262 11.3751 9.78524 12.3493 9.37725C15.122 8.21988 15.7048 8.02005 16.0795 8.01172C16.1628 8.01172 16.346 8.02837 16.4709 8.12829C16.5708 8.21155 16.5958 8.3198 16.6124 8.40306C16.6291 8.48632 16.6457 8.66118 16.6291 8.7944C16.4792 10.3764 15.8297 14.2149 15.4967 15.9801C15.3551 16.7295 15.0804 16.9792 14.8139 17.0042C14.2311 17.0542 13.7898 16.6212 13.2319 16.2549C12.3493 15.6803 11.858 15.3223 11.0004 14.7561C10.0096 14.1066 10.6507 13.7486 11.2169 13.1658C11.3668 13.0159 13.923 10.6845 13.9729 10.4763C13.9813 10.4514 13.9813 10.3514 13.923 10.3015C13.8647 10.2515 13.7814 10.2682 13.7148 10.2848C13.6232 10.3015 12.2244 11.234 9.50167 13.0742C9.102 13.3489 8.74397 13.4822 8.41924 13.4738C8.0612 13.4655 7.37844 13.274 6.8622 13.1075C6.23772 12.9076 5.73814 12.7994 5.77977 12.4497C5.80475 12.2665 6.05454 12.0833 6.52082 11.8918Z"/>
</mask>
<path d="M6.52082 11.8918L6.90074 12.8168L6.90999 12.813L6.91916 12.8091L6.52082 11.8918ZM12.3493 9.37725L11.9641 8.45442L11.963 8.45487L12.3493 9.37725ZM16.0795 8.01172V7.01172H16.0684L16.0573 7.01197L16.0795 8.01172ZM16.4709 8.12829L17.111 7.36007L17.1034 7.35367L17.0956 7.34742L16.4709 8.12829ZM16.6291 8.7944L15.6368 8.67037L15.6349 8.6852L15.6335 8.70009L16.6291 8.7944ZM15.4967 15.9801L16.4793 16.1657L16.4793 16.1655L15.4967 15.9801ZM14.8139 17.0042L14.8993 18.0006L14.9072 17.9999L14.8139 17.0042ZM13.2319 16.2549L13.7808 15.419L13.7774 15.4168L13.2319 16.2549ZM11.0004 14.7561L11.5514 13.9216L11.5486 13.9197L11.0004 14.7561ZM11.2169 13.1658L10.5098 12.4587L10.5047 12.4638L10.4996 12.469L11.2169 13.1658ZM13.9729 10.4763L13.0243 10.1601L13.0106 10.201L13.0006 10.243L13.9729 10.4763ZM13.7148 10.2848L13.8937 11.2687L13.9258 11.2629L13.9574 11.255L13.7148 10.2848ZM9.50167 13.0742L8.9417 12.2456L8.93514 12.2501L9.50167 13.0742ZM8.41924 13.4738L8.44487 12.4742L8.44249 12.4741L8.41924 13.4738ZM6.8622 13.1075L7.1692 12.1558L7.16698 12.155L6.8622 13.1075ZM5.77977 12.4497L4.78894 12.3146L4.78779 12.323L4.78678 12.3315L5.77977 12.4497ZM6.91916 12.8091C9.83694 11.5419 11.7691 10.7044 12.7356 10.2996L11.963 8.45487C10.9811 8.86609 9.03317 9.71051 6.12248 10.9746L6.91916 12.8091ZM12.7345 10.3001C14.1239 9.72012 14.9414 9.38993 15.4548 9.2036C15.9848 9.01124 16.091 9.01171 16.1017 9.01147L16.0573 7.01197C15.6933 7.02005 15.3207 7.12461 14.7725 7.32359C14.2076 7.52859 13.3474 7.87701 11.9641 8.45442L12.7345 10.3001ZM16.0795 9.01172C16.0636 9.01172 16.052 9.01093 16.0337 9.00669C16.0226 9.00411 16.0007 8.99827 15.9712 8.98552C15.9419 8.97281 15.8967 8.94962 15.8462 8.90916L17.0956 7.34742C16.6916 7.02425 16.2113 7.01172 16.0795 7.01172V9.01172ZM15.8307 8.89651C15.6426 8.73978 15.6187 8.53339 15.6318 8.59918L17.593 8.20694C17.5728 8.1062 17.499 7.68333 17.111 7.36007L15.8307 8.89651ZM15.6318 8.59918C15.6297 8.58864 15.6302 8.5888 15.6316 8.60042C15.6328 8.61052 15.6341 8.62397 15.635 8.63872C15.6358 8.65361 15.6361 8.66594 15.6359 8.67447C15.6358 8.684 15.6353 8.68205 15.6368 8.67037L17.6213 8.91843C17.6548 8.6508 17.6244 8.36414 17.593 8.20694L15.6318 8.59918ZM15.6335 8.70009C15.4885 10.2309 14.8473 14.0281 14.514 15.7947L16.4793 16.1655C16.8121 14.4016 17.4699 10.5219 17.6246 8.88871L15.6335 8.70009ZM14.514 15.7945C14.4874 15.9354 14.4585 16.0313 14.4347 16.0929C14.4109 16.1548 14.3962 16.1717 14.4028 16.163C14.4107 16.1524 14.442 16.1149 14.5047 16.0779C14.5693 16.0398 14.6445 16.0157 14.7206 16.0086L14.9072 17.9999C15.8885 17.9079 16.3199 17.0093 16.4793 16.1657L14.514 15.7945ZM14.7285 16.0079C14.7268 16.008 14.6829 16.0186 14.5181 15.9223C14.4326 15.8723 14.3379 15.8077 14.2105 15.7175C14.0931 15.6343 13.9395 15.5232 13.7808 15.419L12.683 17.0907C12.8032 17.1697 12.914 17.25 13.0544 17.3495C13.1849 17.442 13.3415 17.5512 13.509 17.649C13.85 17.8483 14.3182 18.0504 14.8993 18.0006L14.7285 16.0079ZM13.7774 15.4168C12.8596 14.8193 12.4847 14.5377 11.5514 13.9216L10.4495 15.5906C11.2314 16.1068 11.839 16.5414 12.6863 17.0929L13.7774 15.4168ZM11.5486 13.9197C11.4606 13.862 11.4144 13.8228 11.3943 13.8035C11.3738 13.7839 11.3945 13.7984 11.4219 13.8506C11.4527 13.9092 11.4826 13.9983 11.4841 14.1075C11.4856 14.2136 11.4596 14.2943 11.44 14.3388C11.4225 14.3786 11.4096 14.3908 11.4248 14.3715C11.4394 14.3529 11.4667 14.3218 11.516 14.2719C11.5662 14.2211 11.6216 14.1683 11.6961 14.097C11.7662 14.0299 11.8497 13.9496 11.9342 13.8625L10.4996 12.469C10.4426 12.5277 10.3822 12.5861 10.3127 12.6526C10.2476 12.715 10.1678 12.7908 10.0937 12.8658C9.96122 12.9998 9.74276 13.2304 9.60952 13.5331C9.44588 13.9048 9.42529 14.3503 9.6513 14.7806C9.83901 15.1379 10.1526 15.396 10.4522 15.5924L11.5486 13.9197ZM11.924 13.8729C11.9206 13.8763 11.9278 13.8691 11.9571 13.8416C11.9821 13.8181 12.0158 13.7866 12.0576 13.7477C12.1415 13.6696 12.2526 13.5666 12.3843 13.4443C12.6462 13.201 12.984 12.8866 13.3193 12.5697C13.6531 12.2542 13.991 11.9301 14.2511 11.6687C14.3798 11.5394 14.4992 11.4157 14.5922 11.3115C14.6376 11.2608 14.6885 11.2015 14.7342 11.1409C14.7567 11.111 14.7878 11.0677 14.8188 11.0161C14.8396 10.9814 14.9075 10.8675 14.9453 10.7097L13.0006 10.243C13.0353 10.0982 13.0952 10.0014 13.1034 9.9878C13.1217 9.95717 13.1356 9.93889 13.1367 9.93753C13.1393 9.93401 13.13 9.94629 13.1004 9.97948C13.0435 10.0432 12.9539 10.137 12.8335 10.2579C12.5956 10.4969 12.2757 10.804 11.9455 11.1161C11.3145 11.7125 10.5955 12.3729 10.5098 12.4587L11.924 13.8729ZM14.9216 10.7926C14.9706 10.6457 14.9756 10.5178 14.9767 10.4645C14.9781 10.3884 14.9725 10.3055 14.9568 10.2194C14.9298 10.071 14.8476 9.77691 14.5738 9.54222L13.2722 11.0607C13.0567 10.876 13.0036 10.6568 12.9891 10.5772C12.9797 10.5253 12.9761 10.4753 12.977 10.4265C12.9775 10.4005 12.9795 10.2945 13.0243 10.1601L14.9216 10.7926ZM14.5738 9.54222C14.3058 9.3125 14.0084 9.26817 13.822 9.26817C13.6515 9.26817 13.5093 9.30543 13.4723 9.31468L13.9574 11.255C13.987 11.2476 13.9196 11.2682 13.822 11.2682C13.7086 11.2682 13.4819 11.2405 13.2722 11.0607L14.5738 9.54222ZM13.5359 9.30096C13.4182 9.32236 13.3294 9.36101 13.3102 9.36918C13.2746 9.38437 13.2447 9.39927 13.2252 9.4093C13.1853 9.42977 13.1461 9.45212 13.1133 9.47136C13.0456 9.51108 12.961 9.56355 12.8645 9.62484C12.6694 9.74882 12.3942 9.92887 12.0422 10.1623C11.3367 10.6302 10.3031 11.3256 8.94172 12.2456L10.0616 13.9027C11.423 12.9826 12.4501 12.2916 13.1476 11.8291C13.4971 11.5973 13.759 11.4261 13.937 11.313C14.0271 11.2558 14.0881 11.2183 14.125 11.1966C14.1445 11.1852 14.1474 11.184 14.1395 11.1881C14.1359 11.1899 14.1194 11.1984 14.0946 11.209C14.0863 11.2125 14.0057 11.2483 13.8937 11.2687L13.5359 9.30096ZM8.93514 12.2501C8.62544 12.463 8.47559 12.475 8.44487 12.4742L8.3936 14.4735C9.01234 14.4894 9.57856 14.2348 10.0682 13.8982L8.93514 12.2501ZM8.44249 12.4741C8.38276 12.4727 8.21515 12.4477 7.94173 12.3796C7.69071 12.3171 7.4139 12.2347 7.1692 12.1558L6.5552 14.0592C6.82673 14.1468 7.14943 14.2434 7.45836 14.3203C7.74489 14.3917 8.09768 14.4666 8.39599 14.4736L8.44249 12.4741ZM7.16698 12.155C7.08385 12.1284 7.00302 12.1034 6.93115 12.0811C6.85731 12.0582 6.79317 12.0382 6.73389 12.0189C6.60917 11.9782 6.54241 11.9519 6.507 11.9347C6.46268 11.9133 6.53599 11.9384 6.61963 12.0413C6.6675 12.1002 6.71682 12.1823 6.74761 12.2864C6.77857 12.391 6.78218 12.4887 6.77276 12.5679L4.78678 12.3315C4.7434 12.6959 4.85139 13.0366 5.0674 13.3025C5.25252 13.5303 5.48196 13.6605 5.63539 13.7348C5.91775 13.8715 6.321 13.9842 6.55743 14.0599L7.16698 12.155ZM6.7706 12.5848C6.749 12.7432 6.68464 12.853 6.64243 12.9096C6.60254 12.9632 6.57296 12.9827 6.58373 12.9747C6.59239 12.9682 6.62041 12.949 6.67699 12.9192C6.7324 12.8901 6.8059 12.8558 6.90074 12.8168L6.1409 10.9668C5.87479 11.0761 5.6074 11.2074 5.38588 11.3731C5.18872 11.5205 4.85599 11.8228 4.78894 12.3146L6.7706 12.5848Z" fill="#7D7C7C" mask="url(#path-2-outside-1_553_464)"/>
</svg>
