<svg width="24" height="24" viewBox="0 0 24 24" fill="none" xmlns="http://www.w3.org/2000/svg">
<path d="M3 11.625C3 7.55916 3 5.52622 4.2631 4.26312C5.5262 3.00002 7.55914 3.00002 11.625 3.00002H12.375C16.4409 3.00002 18.4738 3.00002 19.7369 4.26312C21 5.52622 21 7.55916 21 11.625V12.375C21 16.4409 21 18.4738 19.7369 19.7369C18.4738 21 16.4409 21 12.375 21H11.625C7.55914 21 5.5262 21 4.2631 19.7369C3 18.4738 3 16.4409 3 12.375V11.625Z" stroke="#7D7C7C"/>
<path d="M7.87522 8.625H6.56242C6.18733 8.625 6.1123 8.80155 6.1123 8.99618C6.1123 9.34384 6.55738 11.0681 8.18463 13.3485C9.26947 14.9058 10.7979 15.75 12.1887 15.75C13.0232 15.75 13.1265 15.5625 13.1265 15.2396V14.0625C13.1265 13.6875 13.2055 13.6126 13.4697 13.6126C13.6645 13.6126 13.9983 13.71 14.7771 14.4609C15.0419 14.7255 15.2409 14.9468 15.403 15.1271L15.4034 15.1276L15.4035 15.1277C15.786 15.5531 15.9631 15.75 16.3147 15.75H17.6275C18.0026 15.75 18.1901 15.5625 18.0819 15.1925C17.9635 14.8237 17.5386 14.2886 16.9746 13.6544C16.8195 13.4711 16.625 13.2806 16.4529 13.1121C16.2855 12.9481 16.1392 12.8048 16.0706 12.7088C15.8759 12.4586 15.9315 12.3473 16.0706 12.1248C16.0706 12.1248 17.67 9.87221 17.8369 9.10748C17.9204 8.82934 17.8369 8.625 17.4399 8.625H16.1271C15.7933 8.625 15.6394 8.80155 15.556 8.99618C15.556 8.99618 14.8884 10.6231 13.9426 11.6799C13.6366 11.9857 13.4976 12.0831 13.3306 12.0831C13.2472 12.0831 13.1264 11.9858 13.1264 11.7077V9.10748C13.1264 8.77373 13.0296 8.625 12.7513 8.625H10.6884C10.4798 8.625 10.3543 8.77988 10.3543 8.92669C10.3543 9.04742 10.4232 9.13268 10.5111 9.24148L10.5112 9.24161C10.6536 9.41783 10.8458 9.65576 10.8759 10.2059V12.1388C10.8759 12.5625 10.7994 12.6393 10.6325 12.6393C10.1874 12.6393 9.10484 11.0052 8.46277 9.13526C8.33695 8.77181 8.21073 8.625 7.87522 8.625Z" stroke="#7D7C7C"/>
</svg>
